<svg xmlns="http://www.w3.org/2000/svg" version="1.1" x="0px" y="0px" width="100%" viewBox="111 0 803 1024">
  <defs>
    <linearGradient id="grad_inner" x1="0" y1="0" x2="0" y2="1">
      <stop offset="0%" stop-color="#85CDB7"/>
      <stop offset="50%" stop-color="#9FD7C8"/>
      <stop offset="100%" stop-color="#85CDB7"/>
    </linearGradient>
    <linearGradient id="grad_middle" x1="0" y1="0" x2="0" y2="1">
      <stop offset="0%" stop-color="#7BA69B"/>
      <stop offset="25%" stop-color="#8CBDB1"/>
      <stop offset="50%" stop-color="#97CEBF"/>
      <stop offset="75%" stop-color="#8CBDB1"/>
      <stop offset="100%" stop-color="#7BA69B"/>
    </linearGradient>
    <linearGradient id="grad_outer" x1="0" y1="0" x2="0" y2="1">
      <stop offset="0%" stop-color="#5F7C78"/>
      <stop offset="15%" stop-color="#668680"/>
      <stop offset="30%" stop-color="#739A92"/>
      <stop offset="50%" stop-color="#87B9AC"/>
      <stop offset="70%" stop-color="#739A92"/>
      <stop offset="85%" stop-color="#668680"/>
      <stop offset="100%" stop-color="#5F7C78"/>
    </linearGradient>
  </defs>





<path fill="url(#grad_outer)" d=" M208.015488,762.992737   C212.793777,768.294006 217.404984,773.758606 222.389740,778.858032   C229.756989,786.394775 239.908325,786.634827 246.765839,779.749146   C253.832520,772.653442 253.698837,762.373474 246.126114,754.274719   C240.443054,747.815369 234.759995,741.356079 228.818741,734.275574   C221.438522,724.175903 214.058319,714.076233 206.428009,703.377502   C200.189590,692.575317 193.951172,681.773132 187.516983,670.320923   C181.665680,656.545959 175.814362,642.770996 169.830383,628.271851   C168.116531,622.888550 166.402679,617.505188 164.557388,611.284485   C161.868179,600.147522 158.711441,589.099304 156.579529,577.856628   C150.749313,547.110962 148.450897,516.072327 151.826736,484.888275   C153.686218,467.711395 156.843109,450.674957 159.823929,432.855011   C160.010544,431.062592 159.901291,429.177124 160.431152,427.492676   C164.247467,415.360291 168.193314,403.268585 172.590240,390.637177   C177.442642,379.161987 182.295029,367.686768 187.665573,355.740265   C193.131516,345.859955 198.597458,335.979614 204.597382,325.682831   C211.576736,315.519348 218.556091,305.355865 226.042664,294.796265   C232.200531,287.608826 238.358398,280.421387 245.061554,272.921051   C245.835938,272.054962 246.657272,271.226044 247.377350,270.316925   C253.773590,262.241730 253.247986,252.519821 246.088791,246.120392   C238.915207,239.708130 229.032715,240.028015 221.979263,247.449677   C216.038742,253.700333 210.632492,260.458740 204.423904,267.342743   C197.564621,276.535400 190.705322,285.728058 183.294479,295.301788   C179.394608,301.570923 175.494751,307.840057 171.098297,314.689301   C170.310928,316.499664 169.648132,318.377075 168.715591,320.109253   C163.381714,330.016754 157.983673,339.889771 152.161301,350.303497   C150.495911,354.103302 148.654526,357.837402 147.205856,361.718109   C144.958557,367.738098 142.978882,373.857971 140.242432,380.240875   C136.132324,393.485992 132.022217,406.731110 127.651215,420.404449   C127.628731,420.570099 127.606239,420.735748 127.246506,421.351562   C127.200592,421.904236 127.154686,422.456909 126.829010,423.744171   C126.632957,424.202026 126.356941,424.642395 126.252235,425.120270   C116.492813,469.663513 113.073090,514.586548 119.145172,559.918396   C121.080452,574.366455 124.417969,588.626709 127.094482,603.751892   C130.725510,615.835938 134.356522,627.919922 137.999298,640.764893   C143.630981,654.267822 149.262665,667.770813 155.006805,681.954712   C160.652695,692.314209 166.298584,702.673706 172.116867,713.705750   C177.710281,721.949280 183.303711,730.192810 189.292435,738.932983   C195.456192,746.752197 201.619934,754.571350 208.015488,762.992737 z"/>
<path fill="url(#grad_outer)" d=" M858.012573,622.692444   C855.375610,630.125427 852.738647,637.558472 849.691101,645.588013   C845.450195,655.056641 841.209290,664.525269 836.449646,674.436707   C830.589966,684.632935 824.730225,694.829163 818.357605,705.443359   C810.520874,716.224487 802.684204,727.005554 794.283142,738.154846   C788.992188,744.137451 783.579590,750.017761 778.441223,756.128784   C772.155884,763.604004 772.965576,773.831177 780.110901,780.390686   C786.628601,786.373962 796.999817,786.192627 803.441040,779.184570   C812.777832,769.026245 821.608643,758.400696 830.565979,747.898376   C831.594971,746.691956 832.053955,744.999451 833.435181,743.443604   C841.307495,731.634766 849.179749,719.825928 857.561951,707.575378   C862.090820,698.809875 866.619751,690.044373 871.653503,680.780151   C876.487488,668.988525 881.321411,657.196899 886.646851,644.801880   C887.059143,643.424011 887.466858,642.044800 887.884399,640.668579   C890.976624,630.475952 894.070862,620.283997 897.602539,609.485107   C899.597778,600.232361 901.864319,591.028442 903.539490,581.718079   C909.575500,548.170227 912.073608,514.384155 908.107971,480.430756   C906.019958,462.554199 902.655212,444.826721 899.897217,426.237122   C896.250366,413.829010 892.603516,401.420929 888.938416,388.259583   C884.243958,376.661926 879.549561,365.064270 874.758057,352.730835   C870.141968,343.824432 865.525818,334.918030 860.931824,325.298828   C855.312927,316.184784 849.694092,307.070740 843.874878,297.298218   C840.154480,291.991486 836.612976,286.546906 832.661011,281.418610   C829.051941,276.735138 824.998413,272.394165 821.038574,267.209625   C814.633850,259.877075 808.634827,252.129913 801.697510,245.341751   C796.040955,239.806900 786.244995,240.654022 780.322876,245.995041   C771.504089,253.948547 772.146851,264.635834 782.236389,274.619324   C790.090759,283.734009 797.945190,292.848663 805.953674,302.666290   C811.943787,311.478577 817.933960,320.290833 824.092712,329.777100   C829.659241,339.863922 835.225830,349.950745 840.947571,360.760345   C846.670044,374.843536 852.392578,388.926697 858.147278,403.766327   C860.352051,410.990234 862.556763,418.214111 864.780701,426.155884   C865.215210,427.768677 865.649719,429.381470 866.043274,431.690948   C866.482239,433.428955 866.921265,435.166962 867.415100,437.707855   C867.652222,438.475739 867.889343,439.243652 868.083252,440.503845   C868.083252,440.503845 868.261353,440.964813 868.256592,441.756134   C869.046814,446.166748 869.905945,450.566284 870.616150,454.989746   C875.753052,486.984222 877.186340,519.090454 873.247070,551.327026   C871.900574,562.345642 870.290588,573.331970 868.279114,584.710693   C868.233093,585.130920 868.187012,585.551086 867.913452,586.614868   C867.876221,587.066162 867.838989,587.517456 867.507080,588.362305   C867.507080,588.362305 867.459412,588.851685 867.185791,589.431702   C867.099670,590.278259 867.013550,591.124817 866.523987,592.475159   C866.390442,593.317322 866.256897,594.159424 865.894470,595.484985   C865.886414,595.836792 865.878296,596.188599 865.377258,597.164429   C863.026611,605.440369 860.676025,613.716370 858.012573,622.692444 z"/>
<path fill="url(#grad_middle)" d=" M304.099426,315.089203   C304.067749,314.594208 303.948151,314.086548 304.017548,313.606140   C305.180145,305.553009 301.358551,300.239441 294.480927,296.896667   C287.799744,293.649445 280.865479,295.101776 275.130981,301.225647   C269.743500,306.978821 264.820709,313.167145 259.128815,319.594666   C253.773239,327.074646 248.417664,334.554626 242.541168,342.461487   C238.296021,349.752502 234.050888,357.043518 229.213455,364.778748   C224.820709,374.189880 220.427979,383.601013 215.585419,393.556213   C212.768463,401.706238 209.951492,409.856293 207.032928,418.768036   C205.684189,422.466309 204.094223,426.096222 203.023758,429.873352   C191.471344,470.636597 188.076538,512.119202 194.469604,553.980408   C197.365555,572.942627 203.000153,591.486572 207.548538,610.991516   C211.569214,621.039734 215.589890,631.088013 219.773087,641.863708   C224.507706,650.925232 229.242325,659.986816 234.091675,669.736267   C241.323715,680.368042 248.555740,690.999817 255.965683,702.248901   C262.690552,710.023865 269.096924,718.107178 276.235321,725.481873   C282.592377,732.049377 293.203430,731.721375 299.643768,725.615417   C306.140442,719.456055 306.818909,709.282776 300.980896,702.157593   C298.045380,698.574829 294.724640,695.307678 291.219971,691.272827   C285.860535,684.439148 280.501129,677.605530 274.951935,670.120544   C268.301849,659.079346 261.651764,648.038086 254.786911,636.308899   C252.411087,631.241760 250.035263,626.174622 247.430023,620.337708   C244.108673,610.961121 240.458847,601.686157 237.523361,592.190247   C225.399979,552.972900 222.305771,512.975342 228.918945,472.473633   C231.398132,457.290100 235.676636,442.400360 239.617783,426.827454   C239.754684,425.882843 239.891586,424.938202 240.313705,423.500366   C240.534241,422.998383 240.754761,422.496368 241.388107,421.394562   C243.604218,415.741211 245.727768,410.049255 248.064545,404.446228   C250.078369,399.617584 252.335144,394.890228 254.907166,389.629120   C258.993561,382.078583 263.079956,374.528046 267.700867,366.586304   C273.382233,358.474701 279.063629,350.363068 285.227448,341.879242   C289.528351,336.889435 294.077698,332.087219 298.039093,326.841064   C300.507599,323.571991 302.087677,319.632111 304.099426,315.089203 z"/>
<path fill="url(#grad_middle)" d=" M769.615356,386.625763   C772.303711,392.110809 774.992065,397.595886 777.833923,403.825531   C778.885071,406.599091 779.893921,409.389557 780.993774,412.143646   C799.252441,457.862732 804.473938,505.071259 797.321167,553.730530   C793.423706,580.244446 785.341675,605.477783 774.051636,630.387451   C772.356506,633.903625 770.661438,637.419739 768.447510,641.391541   C762.596802,650.921265 756.737244,660.445618 750.902405,669.985046   C749.645020,672.040710 748.476746,674.150879 747.284424,676.314514   C747.284424,676.314514 747.208435,676.340698 746.692871,676.378662   C746.405396,676.824890 746.117859,677.271118 745.251343,678.078186   C740.643311,683.846558 736.035278,689.614929 730.970337,695.595947   C728.863159,697.937561 726.586304,700.149597 724.681091,702.645325   C719.179077,709.852478 720.077087,719.652649 726.627502,725.620850   C733.205566,731.614319 743.500366,732.110657 749.662964,725.741394   C756.901611,718.260071 763.328003,709.992981 770.662354,701.699524   C778.659485,689.457092 786.656616,677.214600 795.060486,664.380127   C799.153503,655.958313 803.246521,647.536499 807.795776,638.613342   C811.614258,628.441895 815.432678,618.270386 819.678833,607.645752   C819.813416,606.832458 819.948059,606.019165 820.536682,604.795715   C820.644104,604.205444 820.751526,603.615173 821.201538,602.354431   C834.561462,559.165771 838.113892,515.062439 831.382507,470.481934   C828.545471,451.692627 822.608459,433.371399 818.087769,414.076599   C813.969177,403.724091 809.850525,393.371613 805.599487,382.348999   C802.141907,375.702332 798.684326,369.055664 795.107605,361.750214   C787.101685,349.648193 779.095825,337.546173 770.948547,324.818024   C764.130249,316.669006 757.675537,308.175964 750.386719,300.472107   C743.706360,293.411407 733.541565,293.707520 726.656372,300.177460   C719.906006,306.520691 719.312012,316.710999 725.445068,324.051971   C728.097412,327.226654 731.091431,330.115875 734.196838,333.743103   C740.077820,341.250977 745.958740,348.758850 752.029236,356.917450   C757.796387,366.575104 763.563477,376.232727 769.615356,386.625763 z"/>
<path fill="url(#grad_inner)" d=" M341.000793,393.534607   C344.852112,388.942505 348.627380,384.283875 352.571228,379.772675   C359.852081,371.444397 359.749573,360.662933 352.211670,353.935852   C344.500854,347.054474 334.081726,348.134644 326.667542,356.663055   C283.835907,405.931641 262.953094,463.002350 267.082184,528.388000   C270.521027,582.842957 291.568634,630.133179 328.216858,670.458557   C330.450226,672.916077 333.714600,674.935364 336.885498,675.941650   C344.244873,678.277222 351.816284,674.858276 355.707642,668.216370   C359.848907,661.147888 358.785919,653.312927 352.783173,646.661133   C287.941528,574.808228 282.916382,470.924500 341.000793,393.534607 z"/>
<path fill="url(#grad_inner)" d=" M742.958130,599.449646   C751.824646,577.706665 757.091675,555.096130 758.891357,531.711792   C762.968079,478.740173 750.079651,429.980469 721.379761,385.494263   C714.375793,374.637787 705.823242,364.729919 697.482422,354.806427   C692.912842,349.369812 686.371094,348.111115 679.674194,350.565216   C673.040466,352.996216 669.161316,358.062256 668.302612,365.115051   C667.534912,371.420532 670.601196,376.201599 674.672607,380.724365   C732.605286,445.078827 741.140808,537.954834 699.756348,609.622314   C691.989563,623.072388 681.796448,635.151978 672.383545,647.607483   C668.046082,653.346985 666.725708,659.246765 669.314758,665.812378   C671.851013,672.243958 676.821655,675.896057 683.729187,676.556091   C690.547729,677.207642 695.299133,673.602295 699.617126,668.777893   C717.896057,648.355835 732.092285,625.400391 742.958130,599.449646 z"/>

<path fill="#FCAF87" d=" M573.061279,641.741028   C579.182312,650.417542 586.125427,658.635559 591.269470,667.857056   C606.374084,694.934021 616.071289,723.934631 617.007507,755.119568   C618.404480,801.651978 595.675903,834.423340 550.967468,847.412781   C503.267914,861.271118 456.927277,855.340027 413.454742,831.082520   C394.555817,820.536987 381.070923,804.900391 376.361542,783.177612   C372.635101,765.988770 374.806824,749.070679 381.250793,732.285034   C398.969452,735.730652 416.154510,736.058777 433.264191,732.326782   C457.468658,727.047424 478.124268,715.091125 495.630096,697.720093   C504.721039,688.699158 513.410461,679.274353 522.314209,670.063843   C536.375061,655.518616 553.796631,646.973511 573.061279,641.741028  z"/>
<path fill="#FCAF88" d=" M513.482300,521.526367   C532.854370,537.147400 550.912781,553.641418 567.192444,572.031311   C572.895264,578.473328 572.772156,581.466187 567.118286,587.891602   C540.212952,618.468567 505.353668,632.599792 465.804260,636.972717   C447.521362,638.994202 429.232697,639.519836 411.192230,634.944031   C407.511841,634.010559 403.573792,633.012085 400.536072,630.912659   C397.120483,628.552185 393.399292,625.384033 391.942780,621.719849   C389.510376,615.600586 387.997467,609.582947 380.934662,606.809509   C379.501373,606.246704 378.410034,602.447021 378.716003,600.368408   C379.190094,597.147644 378.212250,595.270203 375.762604,593.701782   C370.744080,590.488586 370.036652,586.169800 371.760437,580.688171   C374.588715,571.694153 374.401459,571.635254 366.953979,565.905396   C358.334808,559.274048 358.363586,551.015991 367.028107,544.635681   C378.261993,536.363403 381.112823,528.810303 377.291260,515.255737   C372.341553,497.699890 372.072266,480.122803 375.986176,462.399109   C376.380188,460.614807 376.798309,458.821106 377.400787,457.100189   C379.863953,450.064575 382.366486,448.904175 389.406250,451.444153   C434.608673,467.753448 475.613159,491.504150 513.482300,521.526367  M407.822266,529.805664   C404.677917,528.073975 401.270966,526.034485 398.729340,530.281433   C396.468140,534.059814 398.875031,536.874512 401.699402,539.279480   C401.826080,539.387329 401.960999,539.485596 402.093384,539.586487   C411.113190,546.459595 425.911102,545.893127 433.862366,537.862122   C435.745789,535.959778 436.072235,532.515930 437.114899,529.781189   C434.344940,529.825867 431.263489,529.096497 428.864136,530.062073   C421.983124,532.831238 415.348175,533.282654 407.822266,529.805664  z"/>
<path fill="#85CDB7" d=" M629.798462,501.371765   C631.008728,483.144745 630.261719,465.625549 622.456665,449.119629   C620.721924,445.451141 618.163574,442.964630 613.781311,444.688507   C609.516479,446.366119 609.053528,449.858765 610.096741,453.812927   C610.265320,454.451996 610.626465,455.042511 610.776001,455.684052   C612.732971,464.081573 615.328735,472.397339 616.447754,480.906738   C617.980225,492.560669 616.156677,504.023071 611.636902,516.002441   C585.221313,487.110046 556.552246,462.148987 525.091553,440.464813   C493.737823,418.854309 460.277191,401.157013 423.243958,387.128876   C438.756104,372.743164 455.309509,362.169189 474.062378,355.013336   C514.634460,339.531433 554.543457,342.169434 593.143677,361.093964   C667.754028,397.673065 690.862183,488.695618 661.502563,559.464172   C657.153076,558.901672 652.848022,558.601196 648.687378,557.661438   C647.315125,557.351501 645.392334,555.466003 645.286133,554.172546   C643.941650,537.793030 639.563232,522.483276 630.642761,508.518433   C629.543884,506.798157 630.022339,504.070374 629.798462,501.371765  z"/>
<path fill="#86CDB7" d=" M464.720154,471.246490   C440.344299,456.976562 415.187439,445.300964 388.786499,436.283844   C378.898621,432.906586 376.708923,426.688965 381.851044,417.650055   C383.825836,414.178680 385.890869,410.751434 388.068298,407.403931   C394.973450,396.788086 402.161011,394.357239 414.068604,398.684631   C452.624725,412.696350 488.615356,431.645020 522.049866,455.380005   C552.041443,476.670898 579.572083,500.750702 603.779175,528.538452   C614.129944,540.420227 614.733704,546.376221 606.284485,559.709717   C604.327393,562.797974 602.301819,565.888672 599.938965,568.664246   C595.084961,574.366089 588.774292,574.726257 583.420410,569.458862   C579.511108,565.612610 576.137451,561.228577 572.399353,557.200867   C540.894043,523.254395 504.942596,494.864380 464.720154,471.246490  z"/>
<path fill="#87CDB6" d=" M572.949341,641.442627   C553.796631,646.973511 536.375061,655.518616 522.314209,670.063843   C513.410461,679.274353 504.721039,688.699158 495.630096,697.720093   C478.124268,715.091125 457.468658,727.047424 433.264191,732.326782   C416.154510,736.058777 398.969452,735.730652 381.441589,731.963501   C388.627655,707.730713 402.143097,687.006409 417.810333,667.299011   C426.741882,656.064148 436.857300,651.740479 451.501923,651.626892   C484.572693,651.370361 516.085449,643.404785 544.325989,625.165161   C548.671265,622.358643 552.826050,622.143372 556.658325,625.639648   C562.174866,630.672485 567.455811,635.963501 572.949341,641.442627  z"/>
<g transform="translate(513, 228) scale(1.5) translate(-513, -228)">
<path fill="#D59E83" d=" M495.972412,208.977539   C496.725006,241.343903 523.227356,263.698486 554.997620,259.235870   C555.821533,259.120148 556.678894,258.853027 557.469299,258.978912   C558.681824,259.172028 559.849548,259.645538 561.036316,260.000031   C560.663330,261.190155 560.591370,262.616364 559.871521,263.534515   C551.015503,274.830200 539.656616,282.182068 525.448242,284.813538   C494.439117,290.556580 464.969177,270.586212 458.815826,239.715363   C452.666107,208.862701 472.231140,179.006454 502.953186,172.363907   C503.440796,172.258469 503.941406,172.058792 504.420563,172.096893   C506.003967,172.222763 507.580261,172.437622 509.159302,172.618332   C508.581177,174.194672 508.366364,176.064911 507.366943,177.300461   C499.985840,186.425186 495.872711,196.681992 495.972412,208.977539  z"/>
<path fill="#D09D84" d=" M534.739868,210.404221   C532.063110,208.137146 529.640869,206.133163 527.218689,204.129196   C527.487244,203.446075 527.755859,202.762955 528.024414,202.079819   C530.456787,201.605896 532.884460,200.767487 535.322510,200.736221   C539.970764,200.676605 542.598206,198.525192 544.025208,194.209824   C544.768799,191.960999 546.165771,189.928223 547.863464,186.645920   C550.561768,191.592636 551.798706,196.586456 554.985535,198.941376   C558.218567,201.330414 563.377136,201.113556 568.715149,202.257080   C566.872559,204.425323 565.803040,206.294922 564.212036,207.439987   C559.657837,210.717712 558.494385,214.719727 560.261047,220.006363   C560.831848,221.714554 560.270752,223.800995 560.227478,225.714386   C558.413940,225.227249 556.286377,225.186081 554.844543,224.170959   C550.165588,220.876709 545.798462,220.881226 541.154480,224.172256   C539.652039,225.236969 537.693726,225.658218 535.932556,226.378433   C533.407532,220.825684 539.597412,215.494507 534.739868,210.404221  z"/>
</g>
<path fill="#86CBB6" d=" M629.678467,611.297607   C621.912537,601.309753 621.312073,590.670959 627.760315,581.555420   C633.800293,573.017029 644.263123,569.428040 654.181335,572.492432   C663.440613,575.353210 669.779114,583.443726 670.672424,593.541626   C671.488647,602.768250 665.985718,612.271240 657.493896,616.299255   C647.962097,620.820618 638.169067,619.135498 629.678467,611.297607  z"/>
<path fill="#2A1F1E" d=" M408.196594,529.962341   C415.348175,533.282654 421.983124,532.831238 428.864136,530.062073   C431.263489,529.096497 434.344940,529.825867 437.114868,529.781189   C436.072235,532.515930 435.745789,535.959778 433.862366,537.862122   C425.911102,545.893127 411.113190,546.459595 402.093384,539.586487   C401.960999,539.485596 401.826080,539.387329 401.699402,539.279480   C398.875031,536.874512 396.468140,534.059814 398.729340,530.281433   C401.270966,526.034485 404.677917,528.073975 408.196594,529.962341  z"/>
</svg>